<?xml version="1.0" encoding="UTF-8" standalone="no"?>
<!-- Created with Inkscape (http://www.inkscape.org/) -->

<svg
   xmlns:dc="http://purl.org/dc/elements/1.1/"
   xmlns:cc="http://creativecommons.org/ns#"
   xmlns:rdf="http://www.w3.org/1999/02/22-rdf-syntax-ns#"
   xmlns:svg="http://www.w3.org/2000/svg"
   xmlns="http://www.w3.org/2000/svg"
   xmlns:xlink="http://www.w3.org/1999/xlink"
   xmlns:sodipodi="http://sodipodi.sourceforge.net/DTD/sodipodi-0.dtd"
   xmlns:inkscape="http://www.inkscape.org/namespaces/inkscape"
   width="744.09448819"
   height="1052.3622047"
   id="svg2"
   version="1.1"
   inkscape:version="0.48.1 r9760"
   sodipodi:docname="logo.svg"
   inkscape:export-filename="/home/georgemauer/Ubuntu One/Humble Pi/logo.png"
   inkscape:export-xdpi="90"
   inkscape:export-ydpi="90">
  <defs
     id="defs4">
    <inkscape:path-effect
       effect="bend_path"
       id="path-effect3830"
       is_visible="true"
       bendpath="m 140.69277,82.553421 c 44.50881,-45.359754 98.68574,13.871383 167.91424,2.959958"
       prop_scale="1"
       scale_y_rel="true"
       vertical="false"
       bendpath-nodetypes="cc" />
    <inkscape:path-effect
       effect="bend_path"
       id="path-effect5336"
       is_visible="true"
       bendpath="m 146.22315,115.07834 c 52.64363,-27.23062 58.98664,7.53908 160.17454,10.20154"
       prop_scale="1"
       scale_y_rel="false"
       vertical="false"
       bendpath-nodetypes="cc" />
    <linearGradient
       id="linearGradient5276">
      <stop
         id="stop5278"
         offset="0"
         style="stop-color:#006a97;stop-opacity:1" />
      <stop
         id="stop5280"
         offset="1"
         style="stop-color:#6ed0ff;stop-opacity:1" />
    </linearGradient>
    <linearGradient
       inkscape:collect="always"
       id="linearGradient3795">
      <stop
         style="stop-color:#0084bb;stop-opacity:1"
         offset="0"
         id="stop3797" />
      <stop
         style="stop-color:#6ed0ff;stop-opacity:1"
         offset="1"
         id="stop3799" />
    </linearGradient>
    <linearGradient
       inkscape:collect="always"
       xlink:href="#linearGradient3795"
       id="linearGradient3805"
       x1="206.76802"
       y1="122.11559"
       x2="204.88867"
       y2="133.53197"
       gradientUnits="userSpaceOnUse"
       spreadMethod="reflect"
       gradientTransform="matrix(0.86878836,-0.0366307,0.04661065,1.1054876,18.889935,-9.4149763)" />
    <linearGradient
       inkscape:collect="always"
       xlink:href="#linearGradient5276"
       id="linearGradient5274"
       x1="145.14101"
       y1="187.56375"
       x2="165.16553"
       y2="188.40329"
       gradientUnits="userSpaceOnUse"
       gradientTransform="translate(10.839977,-17.194528)"
       spreadMethod="reflect" />
    <linearGradient
       inkscape:collect="always"
       xlink:href="#linearGradient5276-3"
       id="linearGradient5274-2"
       x1="145.14101"
       y1="187.56375"
       x2="165.16553"
       y2="188.40329"
       gradientUnits="userSpaceOnUse"
       gradientTransform="translate(3.2290449,-14.530702)"
       spreadMethod="reflect" />
    <linearGradient
       id="linearGradient5276-3">
      <stop
         id="stop5278-5"
         offset="0"
         style="stop-color:#006a97;stop-opacity:1" />
      <stop
         id="stop5280-4"
         offset="1"
         style="stop-color:#6ed0ff;stop-opacity:1" />
    </linearGradient>
    <linearGradient
       y2="188.78384"
       x2="162.88223"
       y1="187.56375"
       x1="148.18538"
       spreadMethod="reflect"
       gradientTransform="translate(75.996965,-0.71560959)"
       gradientUnits="userSpaceOnUse"
       id="linearGradient5297"
       xlink:href="#linearGradient5276-3"
       inkscape:collect="always" />
    <linearGradient
       inkscape:collect="always"
       xlink:href="#linearGradient3795"
       id="linearGradient3020"
       gradientUnits="userSpaceOnUse"
       gradientTransform="matrix(0.86850857,-0.06316302,0.05440209,1.6326806,17.426308,-68.062122)"
       spreadMethod="reflect"
       x1="206.76802"
       y1="122.11559"
       x2="204.88867"
       y2="133.53197" />
    <linearGradient
       inkscape:collect="always"
       xlink:href="#linearGradient5276-3"
       id="linearGradient3023"
       gradientUnits="userSpaceOnUse"
       gradientTransform="matrix(1.333884,-0.00591429,0.00940279,0.83900371,21.502597,22.86871)"
       spreadMethod="reflect"
       x1="148.18538"
       y1="187.56375"
       x2="162.88223"
       y2="188.78384" />
    <linearGradient
       inkscape:collect="always"
       xlink:href="#linearGradient5276"
       id="linearGradient3026"
       gradientUnits="userSpaceOnUse"
       gradientTransform="matrix(1.4225561,-0.00596942,0.01002786,0.8468241,-60.001147,8.4821067)"
       spreadMethod="reflect"
       x1="145.14101"
       y1="187.56375"
       x2="165.16553"
       y2="188.40329" />
  </defs>
  <sodipodi:namedview
     id="base"
     pagecolor="#ffffff"
     bordercolor="#666666"
     borderopacity="1.0"
     inkscape:pageopacity="0.0"
     inkscape:pageshadow="2"
     inkscape:zoom="2.8999625"
     inkscape:cx="171.49847"
     inkscape:cy="880.24105"
     inkscape:document-units="px"
     inkscape:current-layer="g3050"
     showgrid="false"
     inkscape:window-width="1600"
     inkscape:window-height="876"
     inkscape:window-x="0"
     inkscape:window-y="24"
     inkscape:window-maximized="1" />
  <metadata
     id="metadata7">
    <rdf:RDF>
      <cc:Work
         rdf:about="">
        <dc:format>image/svg+xml</dc:format>
        <dc:type
           rdf:resource="http://purl.org/dc/dcmitype/StillImage" />
        <dc:title></dc:title>
      </cc:Work>
    </rdf:RDF>
  </metadata>
  <g
     inkscape:label="Layer 1"
     inkscape:groupmode="layer"
     id="layer1">
    <path
       style="fill:url(#linearGradient3026);fill-opacity:1;stroke:#000000;stroke-width:0.21951899;stroke-miterlimit:4;stroke-opacity:1;stroke-dasharray:none"
       id="path2995"
       d="m 191.94849,127.38691 c -18.95098,36.6106 22.62079,104.85101 -32.67614,120.04709 19.82616,-37.44777 -0.33429,-82.45306 6.90924,-112.62899 l 25.76702,-7.4181 z"
       inkscape:connector-curvature="0"
       sodipodi:nodetypes="ccccc" />
    <path
       style="fill:url(#linearGradient3023);fill-opacity:1;stroke:#000000;stroke-width:0.21158348;stroke-miterlimit:4;stroke-opacity:1;stroke-dasharray:none"
       id="path2995-3"
       d="m 264.34277,140.32689 c -13.17979,38.16792 -15.60158,80.41804 -11.36824,117.25653 -28.22159,-11.30867 -24.57413,-12.16277 -19.38783,-109.5584 l 24.16088,-7.34959 z"
       inkscape:connector-curvature="0"
       sodipodi:nodetypes="ccccc" />
    <path
       style="fill:url(#linearGradient3020);fill-opacity:1;stroke:#000000;stroke-width:0.23844776;stroke-miterlimit:4;stroke-opacity:1;stroke-dasharray:none"
       id="path2993"
       d="m 181.93582,117.93375 c 43.16437,10.6702 85.7875,30.94322 124.41498,20.24869 -37.67148,42.23422 -82.22059,20.70133 -122.43351,6.83667 -17.36965,-6.55995 -31.38375,7.05273 -45.97993,9.6173 12.87352,-28.43071 26.85066,-34.81149 43.99846,-36.70266 z"
       inkscape:connector-curvature="0"
       sodipodi:nodetypes="ccccc" />
  </g>
  <g
     inkscape:groupmode="layer"
     id="layer2"
     inkscape:label="text"
     style="display:none">
    <g
       style="font-size:40px;font-style:normal;font-weight:normal;line-height:125%;letter-spacing:0px;word-spacing:0px;fill:#000000;fill-opacity:1;stroke:none;font-family:Sans"
       id="text3796"
       transform="translate(-4.8435674,34.443146)"
       inkscape:path-effect="#path-effect3830">
      <path
         id="path3834"
         style="font-size:52px;font-variant:normal;font-stretch:normal;font-family:Liberation Sans;-inkscape-font-specification:Liberation Sans"
         d="m 169.63006,87.732182 -5.87061,-17.436213 c -1.67272,0.562879 -3.31208,1.216307 -4.90701,1.962462 -4.58211,2.129567 -8.81844,5.019378 -12.67839,8.388526 l 12.11652,13.886442 c -0.92683,0.812167 -1.84776,1.675087 -2.76159,2.577903 L 127.17655,69.290765 c 1.56981,-1.625776 3.2268,-3.202931 4.96979,-4.720608 l 11.05888,12.674302 c 4.13407,-3.606098 8.72407,-6.724192 13.73942,-9.073376 1.75316,-0.816764 3.54897,-1.531833 5.37638,-2.147387 L 156.96286,50.10948 c 2.32933,-0.786675 4.68216,-1.448523 7.04843,-1.987526 l 8.75073,38.748818 c -1.07541,0.237788 -2.12274,0.524263 -3.13196,0.86141 z m 117.10722,4.795415 c -0.0498,1.597024 0.0717,3.077491 0.38009,4.439883 0.32921,1.344178 0.85776,2.514123 1.5941,3.50277 0.75748,0.97018 1.74442,1.73094 2.9593,2.26766 1.21472,0.51793 2.689,0.7553 4.40298,0.68777 2.50665,-0.0987 4.49144,-0.68686 5.9042,-1.69293 1.43396,-1.00787 2.32593,-2.228966 2.69687,-3.630129 1.67955,0.242821 3.3749,0.451438 5.08566,0.624082 -0.22935,0.889201 -0.61079,1.809227 -1.15399,2.755787 -0.52448,0.92506 -1.29654,1.80368 -2.32357,2.6226 -1.02926,0.80027 -2.37203,1.51002 -4.02685,2.10176 -1.63444,0.57116 -3.65561,0.92784 -6.03474,1.02185 -5.28699,0.2089 -9.30567,-1.26241 -11.85556,-4.07077 -0.74617,-0.82841 -1.35759,-1.77084 -1.83692,-2.82214 -1.14309,-2.511971 -1.52745,-5.639112 -1.25656,-9.364787 0.20713,-2.84877 0.74669,-5.229142 1.57143,-7.153457 0.237,-0.557546 0.49051,-1.083523 0.76016,-1.578285 0,0 0,0 0,0 0.66973,-1.229372 1.43847,-2.265718 2.30568,-3.115213 1.21618,-1.191296 2.57377,-2.045187 4.09251,-2.579757 1.51885,-0.553307 3.11325,-0.853841 4.81411,-0.91619 2.31315,-0.08472 4.25309,0.184968 5.8825,0.864514 1.64643,0.67803 3.04123,1.664462 4.19486,2.991933 1.16869,1.306606 2.12346,2.893101 2.84045,4.78036 0.73529,1.884538 1.29951,3.954526 1.65652,6.219466 l 0.10534,0.668349 c -7.54705,1.185773 -15.17605,1.611879 -22.75857,1.374874 z m 16.86999,-4.515473 c -0.63267,-3.16322 -1.67454,-5.400684 -3.08763,-6.749238 -1.41474,-1.36722 -3.26693,-1.970728 -5.64353,-1.884955 -0.79221,0.02863 -1.62399,0.191281 -2.50522,0.485366 -0.86382,0.275102 -1.6697,0.755798 -2.42829,1.445886 -0.75863,0.69014 -1.41677,1.627723 -1.97781,2.818046 -0.56061,1.171577 -0.91642,2.674022 -1.04918,4.512946 5.56589,0.17106 11.1483,-0.02436 16.69166,-0.628051 z m -36.32669,16.915686 6.25356,-41.36887 c 1.44808,0.220838 2.88842,0.417823 4.32053,0.58831 l -4.90419,41.53985 c -1.90372,-0.22347 -3.79385,-0.47745 -5.6699,-0.75929 z m -1.04813,-14.244436 c -0.74963,4.415782 -2.0308,7.78967 -3.9177,10.083666 -1.88689,2.29399 -4.3786,3.50661 -7.38818,3.58228 -1.13337,0.026 -2.33741,-0.10685 -3.60241,-0.39974 -2.47329,-0.57266 -4.40441,-1.47833 -5.80396,-2.68662 -1.37538,-1.22154 -2.30411,-2.864991 -2.79533,-4.920633 -0.0191,-0.0051 -0.0381,-0.01016 -0.0572,-0.01524 -0.12626,0.471825 -0.27638,0.956726 -0.45074,1.454597 -0.15515,0.503003 -0.31027,0.967125 -0.46545,1.392339 -0.1359,0.430366 -0.26449,0.794627 -0.38582,1.092772 -0.10198,0.30331 -0.17248,0.48864 -0.21122,0.55606 -1.67774,-0.44855 -3.3394,-0.905147 -4.98572,-1.366754 0.0648,-0.157484 0.16023,-0.423463 0.2861,-0.798009 0.13097,-0.392632 0.28239,-0.857597 0.45401,-1.394962 0.17161,-0.537362 0.34909,-1.131628 0.53242,-1.782805 0.20206,-0.645915 0.40237,-1.321599 0.60094,-2.027054 l 9.6302,-34.214272 c 1.55504,0.440096 3.09876,0.867726 4.63202,1.279528 l -3.07916,11.514789 c -0.14561,0.544459 -0.29469,1.06851 -0.44888,1.571717 -0.13108,0.490004 -0.25598,0.923295 -0.3763,1.299442 -0.13922,0.448928 -0.27134,0.870561 -0.39612,1.264959 0.0358,0.0096 0.0717,0.0192 0.10751,0.02879 1.40062,-1.647563 2.92756,-2.690666 4.58366,-3.141373 1.67373,-0.446159 3.56982,-0.41129 5.70682,0.07752 1.10536,0.252863 2.092,0.594757 2.96582,1.030866 1.96803,0.982919 3.36948,2.448413 4.23147,4.434633 1.26318,2.872919 1.51395,6.894282 0.63308,12.083483 m -5.4443,-0.835119 c 0.41237,-2.064574 0.63332,-3.86059 0.67194,-5.386961 0.0386,-1.52634 -0.12728,-2.816218 -0.49373,-3.871716 -0.17613,-0.521498 -0.3992,-0.989936 -0.66939,-1.405836 0,0 0,0 0,0 -0.28594,-0.440337 -0.62466,-0.821755 -1.01691,-1.1452 -0.76263,-0.628775 -1.755,-1.08282 -2.98545,-1.372403 -1.26617,-0.297934 -2.43941,-0.363608 -3.52741,-0.191102 -1.07016,0.177034 -2.05742,0.640242 -2.9646,1.393843 -0.88922,0.758335 -1.70761,1.843548 -2.45368,3.258566 -0.74609,1.415055 -1.41386,3.210104 -1.9962,5.387828 -0.56295,2.105156 -0.85998,3.921749 -0.88336,5.450816 -0.0234,1.529083 0.18858,2.838224 0.64026,3.925975 0.47551,1.07455 1.18621,1.94586 2.13403,2.609509 0.95237,0.645432 2.11826,1.135428 3.49743,1.46226 1.30031,0.308155 2.48135,0.356025 3.52881,0.146735 0.60187,-0.120273 1.16965,-0.33913 1.70135,-0.656085 0,0 0,0 0,0 0.3928,-0.235192 0.76586,-0.524175 1.11879,-0.866633 0.82964,-0.805092 1.54118,-1.926177 2.13573,-3.35922 0.61774,-1.447501 1.13524,-3.242046 1.56239,-5.380376 z m -48.47126,2.316557 5.32384,-18.595239 c 0.4087,-1.42761 0.65995,-2.646167 0.75234,-3.655882 0.0923,-1.009698 0.002,-1.86616 -0.27138,-2.568931 -0.23712,-0.678004 -0.64486,-1.228547 -1.2236,-1.650262 -0.0321,-0.02346 -0.0648,-0.04652 -0.098,-0.06919 -0.62639,-0.449041 -1.44746,-0.814286 -2.46456,-1.091054 -1.05415,-0.286792 -2.06773,-0.332235 -3.03194,-0.136455 -0.95948,0.177634 -1.84619,0.583059 -2.65426,1.214304 -0.78498,0.617686 -1.4822,1.463224 -2.09147,2.533881 -0.58654,1.056879 -1.05356,2.327014 -1.40918,3.80737 l -4.12927,17.188761 c -1.45524,-0.352538 -2.88975,-0.680383 -4.30428,-0.977416 l 4.90115,-23.47808 c 0.13054,-0.625323 0.25799,-1.280104 0.3804,-1.964747 0.14577,-0.698917 0.27297,-1.353748 0.37967,-1.964889 0.11109,-0.629363 0.20266,-1.166852 0.27507,-1.612399 0.0724,-0.445489 0.11198,-0.734702 0.11919,-0.867555 1.66271,0.344447 3.31006,0.712831 4.9427,1.099909 -0.003,0.096 -0.042,0.347425 -0.11874,0.754181 -0.0767,0.406814 -0.16869,0.877595 -0.27618,1.41228 -0.0842,0.520965 -0.18248,1.057887 -0.29463,1.6108 -0.10791,0.534658 -0.20565,0.984766 -0.29307,1.350351 0.028,0.0067 0.0561,0.0134 0.0841,0.0201 0.65423,-0.751791 1.3316,-1.409512 2.03045,-1.972738 0.69883,-0.563177 1.45957,-0.992846 2.27919,-1.287636 0.84313,-0.308118 1.75236,-0.469582 2.72223,-0.48334 0.99345,-0.02686 2.08974,0.124995 3.27993,0.456539 0.3255,0.09069 0.63811,0.187989 0.93789,0.291789 0,0 0,0 0,0 1.80486,0.621154 3.15162,1.477438 4.0465,2.558307 1.0616,1.265535 1.55873,2.939476 1.49994,5.018602 0.0272,0.008 0.0544,0.01595 0.0816,0.02393 0.68376,-0.720288 1.3991,-1.342856 2.14537,-1.867711 0.74618,-0.524821 1.55161,-0.914165 2.41493,-1.168193 0.8686,-0.272013 1.7924,-0.399682 2.76968,-0.383651 0.98256,-0.0019 2.04929,0.168607 3.19835,0.510118 1.47212,0.437604 2.6738,1.009111 3.61107,1.716178 0.95504,0.712361 1.64938,1.581048 2.08686,2.60864 0.43737,1.027623 0.62791,2.2465 0.57167,3.658003 -0.0511,1.393466 -0.33382,2.993744 -0.85149,4.800446 l -5.59912,19.53959 c -1.66937,-0.475981 -3.32325,-0.955821 -4.96248,-1.436267 l 5.45864,-18.558692 c 0.41904,-1.424806 0.67886,-2.6417 0.78036,-3.65054 0.10137,-1.008828 0.0217,-1.8653 -0.2391,-2.569726 -0.23757,-0.717123 -0.66252,-1.293877 -1.27589,-1.730875 -0.60812,-0.454997 -1.40663,-0.82971 -2.39718,-1.124457 -1.02663,-0.305432 -2.01485,-0.383703 -2.96335,-0.233924 -0.94323,0.131789 -1.82591,0.487978 -2.6464,1.068844 -0.80249,0.586237 -1.53369,1.399784 -2.19314,2.440355 -0.64146,1.045914 -1.18148,2.317751 -1.6216,3.814886 l -4.9874,16.964658 c -1.57076,-0.462968 -3.12892,-0.918371 -4.6753,-1.362955 m -36.5218,-38.276584 1.34737,19.28687 c 0.10343,1.480732 0.27844,2.711002 0.51051,3.692871 0.24733,0.980815 0.57733,1.767988 0.9875,2.367447 0.40926,0.580712 0.91467,0.991654 1.52868,1.243338 0.62814,0.232652 1.39575,0.352954 2.32666,0.379195 0.94566,0.02666 1.81548,-0.131661 2.62311,-0.489165 0.82415,-0.375174 1.56218,-0.922322 2.21145,-1.652336 0.66697,-0.747164 1.23822,-1.677413 1.70297,-2.798225 0.46683,-1.13949 0.80146,-2.463093 0.98205,-3.97604 L 192.11195,54.3753 c 1.63954,0.195419 3.25931,0.429494 4.85734,0.696147 0.23522,0.03859 0.47011,0.07773 0.70466,0.11742 l -3.96573,23.658464 c -0.10565,0.630153 -0.21749,1.297372 -0.33553,2.001656 -0.0986,0.68845 -0.19293,1.349041 -0.28274,1.981797 -0.0868,0.614213 -0.15984,1.14498 -0.21895,1.592341 -0.0592,0.447348 -0.092,0.73715 -0.0982,0.869465 -0.22829,-0.03787 -0.45614,-0.07476 -0.68355,-0.110652 -1.09491,-0.166107 -2.17354,-0.316893 -3.23447,-0.447957 -0.004,-0.09521 0.0126,-0.349082 0.0482,-0.761669 0.0354,-0.412597 0.0701,-0.882144 0.10325,-1.408724 0.0509,-0.543346 0.10148,-1.086741 0.15181,-1.630163 0.0526,-0.562085 0.10134,-1.029893 0.14679,-1.403358 -0.0241,-0.0029 -0.0481,-0.0058 -0.0722,-0.0088 -0.52276,0.827354 -1.06045,1.570379 -1.61126,2.230798 -0.55084,0.660422 -1.15124,1.21534 -1.79709,1.669878 -0.64437,0.435795 -1.3486,0.760393 -2.11039,0.983046 -0.7627,0.241421 -1.61588,0.350373 -2.56138,0.347491 -1.21566,-0.0037 -2.22852,-0.163562 -3.10008,-0.510903 -0.20466,-0.08156 -0.4022,-0.174422 -0.59322,-0.278925 -0.60695,-0.346443 -1.15539,-0.819401 -1.65208,-1.425749 -0.6491,-0.792414 -1.21989,-1.830427 -1.70238,-3.126657 -0.46848,-1.298335 -0.87252,-2.880053 -1.17447,-4.754855 L 169.6971,54.580291 c 1.77974,-0.287227 3.56626,-0.50004 5.35379,-0.63958 0.2483,-0.01867 0.49633,-0.03616 0.74409,-0.05248"
         inkscape:original-d="m 184.80248,84.725048 0,-16.580078 -19.34766,0 0,16.580078 -4.84961,0 0,-35.775391 4.84961,0 0,15.132813 19.34766,0 0,-15.132813 4.8496,0 0,35.775391 -4.8496,0 M 298.96167,71.146301 c -1e-5,1.438814 0.14387,2.767588 0.43164,3.986328 0.30468,1.201831 0.76171,2.242845 1.37109,3.123047 0.6263,0.863286 1.42187,1.540369 2.38672,2.03125 0.96483,0.473962 2.12434,0.710941 3.47852,0.710938 1.98045,3e-6 3.56313,-0.397783 4.74805,-1.19336 1.2018,-0.795568 2.0143,-1.802728 2.4375,-3.021484 l 4.01171,1.142578 c -0.28778,0.761724 -0.69403,1.531906 -1.21875,2.310547 -0.50783,0.761722 -1.19338,1.455731 -2.05664,2.082031 -0.8633,0.609376 -1.94663,1.117188 -3.25,1.523438 -1.28647,0.389322 -2.84376,0.583984 -4.67187,0.583984 -4.06251,0 -7.16017,-1.210286 -9.29297,-3.630859 -2.11589,-2.420568 -3.17383,-6.017569 -3.17383,-10.791016 0,-2.5729 0.32161,-4.748028 0.96485,-6.52539 0.64322,-1.794249 1.52343,-3.249977 2.64062,-4.367188 1.11718,-1.117162 2.42057,-1.921197 3.91016,-2.412109 1.48957,-0.507785 3.08071,-0.761691 4.77343,-0.761719 2.30207,2.8e-5 4.22329,0.372423 5.76368,1.117187 1.55727,0.744818 2.80141,1.777369 3.73242,3.097657 0.94789,1.303408 1.61651,2.843771 2.00586,4.621093 0.40622,1.777362 0.60935,3.698584 0.60937,5.763672 l 0,0.609375 -19.60156,0 m 14.87891,-3.503906 c -0.25393,-2.894512 -0.99026,-5.001932 -2.20899,-6.322266 -1.21877,-1.337215 -2.97072,-2.005834 -5.25586,-2.005859 -0.76173,2.5e-5 -1.56577,0.126978 -2.41211,0.380859 -0.82944,0.237004 -1.59962,0.668644 -2.31054,1.294922 -0.71095,0.626325 -1.31186,1.481142 -1.80274,2.564453 -0.49089,1.066426 -0.77019,2.429055 -0.83789,4.087891 l 14.82813,0 m -29.96094,16.275391 0,-37.679688 4.57031,0 0,37.679688 -4.57031,0 m -2.75293,-12.517847 c -3e-5,9.580734 -3.36851,14.371094 -10.10547,14.371094 -2.08205,0 -3.81707,-0.372396 -5.20508,-1.117187 -1.3711,-0.761718 -2.48829,-1.980467 -3.35156,-3.65625 l -0.0508,0 c -10e-6,0.440108 -0.0169,0.897138 -0.0508,1.371093 -0.0169,0.473961 -0.0423,0.914065 -0.0762,1.320313 -0.0169,0.406251 -0.0423,0.753256 -0.0762,1.041016 -0.0169,0.28776 -0.0339,0.465494 -0.0508,0.533203 l -4.41797,0 c 0.0169,-0.152344 0.0339,-0.40625 0.0508,-0.761719 0.0169,-0.372395 0.0339,-0.812499 0.0508,-1.320313 0.0169,-0.50781 0.0254,-1.066403 0.0254,-1.675781 0.0169,-0.60937 0.0254,-1.244135 0.0254,-1.904297 l 0,-32.017578 4.57031,0 0,10.740235 c -10e-6,0.507838 -0.008,0.998723 -0.0254,1.472656 -1e-5,0.457056 -0.008,0.863306 -0.0254,1.21875 -0.0169,0.423201 -0.0339,0.820987 -0.0508,1.193359 l 0.10156,0 c 0.84634,-1.760392 1.96353,-3.021458 3.35156,-3.783203 1.40494,-0.761691 3.13996,-1.14255 5.20508,-1.142578 3.47003,2.8e-5 6.01755,1.167995 7.64258,3.503906 1.6419,2.33596 2.46286,5.873717 2.46289,10.613281 m -4.79883,0.152344 c -2e-5,-1.895818 -0.11851,-3.520816 -0.35547,-4.875 -0.237,-1.354147 -0.61786,-2.462869 -1.14258,-3.326172 -0.52476,-0.880185 -1.19338,-1.523414 -2.00586,-1.929687 -0.81251,-0.406226 -1.80275,-0.609351 -2.9707,-0.609375 -1.20184,2.4e-5 -2.26824,0.194685 -3.19922,0.583984 -0.91407,0.389347 -1.68425,1.015648 -2.31055,1.878906 -0.60938,0.863303 -1.07487,1.997416 -1.39648,3.402344 -0.32162,1.404965 -0.48243,3.123062 -0.48242,5.154297 -10e-6,1.963553 0.1608,3.613942 0.48242,4.951172 0.32161,1.337247 0.7871,2.429042 1.39648,3.275391 0.6263,0.829431 1.39648,1.430342 2.31055,1.802734 0.91405,0.355472 1.96353,0.533206 3.14844,0.533203 1.11717,3e-6 2.08201,-0.194658 2.89453,-0.583984 0.81248,-0.389319 1.48956,-1.015621 2.03125,-1.878907 0.54165,-0.863275 0.93943,-1.980461 1.19336,-3.351562 0.27081,-1.388011 0.40623,-3.06379 0.40625,-5.027344 m -40.96102,13.441852 0,-17.417969 c -2e-5,-1.337221 -0.0847,-2.454407 -0.2539,-3.351563 -0.16929,-0.897113 -0.45705,-1.616514 -0.86329,-2.158203 -0.38934,-0.55857 -0.90561,-0.947893 -1.54882,-1.167968 -0.64325,-0.236955 -1.43036,-0.355445 -2.36133,-0.355469 -0.96486,2.4e-5 -1.8366,0.194685 -2.61524,0.583984 -0.77865,0.372419 -1.44727,0.922549 -2.00586,1.650391 -0.54167,0.710959 -0.96485,1.59963 -1.26953,2.666015 -0.28777,1.049498 -0.43165,2.259783 -0.43164,3.63086 l 0,15.919922 -4.54492,0 0,-21.607422 c 0,-0.575499 -0.008,-1.17641 -0.0254,-1.802735 0,-0.643205 -0.008,-1.244116 -0.0254,-1.802734 -0.0169,-0.575495 -0.0339,-1.06638 -0.0508,-1.472656 -0.0169,-0.406223 -0.0339,-0.668593 -0.0508,-0.78711 l 4.3164,0 c 0.0169,0.08466 0.0339,0.313179 0.0508,0.685547 0.0169,0.372423 0.0339,0.804063 0.0508,1.294922 0.0338,0.473983 0.0592,0.964868 0.0762,1.472656 0.0169,0.490909 0.0254,0.905622 0.0254,1.244141 l 0.0762,0 c 0.40624,-0.795549 0.84635,-1.51495 1.32031,-2.158203 0.47395,-0.643204 1.02408,-1.18487 1.65039,-1.625 0.64322,-0.457004 1.37109,-0.804009 2.1836,-1.041016 0.82941,-0.253878 1.78579,-0.380831 2.86914,-0.380859 2.08201,2.8e-5 3.72394,0.414741 4.92578,1.244141 1.21873,0.829453 2.06508,2.149764 2.53906,3.960937 l 0.0762,0 c 0.40623,-0.795549 0.86326,-1.51495 1.3711,-2.158203 0.50778,-0.643204 1.10023,-1.18487 1.77734,-1.625 0.67706,-0.457004 1.43878,-0.804009 2.28516,-1.041016 0.84632,-0.253878 1.81116,-0.380831 2.89453,-0.380859 1.38799,2.8e-5 2.58134,0.186226 3.58008,0.558594 1.01559,0.372423 1.84501,0.947943 2.48828,1.726562 0.64319,0.778671 1.11715,1.785831 1.42187,3.021485 0.30465,1.218771 0.45699,2.674499 0.45703,4.367187 l 0,18.306641 -4.51953,0 0,-17.417969 c -3e-5,-1.337221 -0.0847,-2.454407 -0.2539,-3.351563 -0.16931,-0.897113 -0.45707,-1.616514 -0.86328,-2.158203 -0.38936,-0.55857 -0.90564,-0.947893 -1.54883,-1.167968 -0.64326,-0.236955 -1.43037,-0.355445 -2.36133,-0.355469 -0.96487,2.4e-5 -1.83662,0.186222 -2.61524,0.558594 -0.77867,0.355492 -1.44729,0.888694 -2.00585,1.599609 -0.5417,0.710959 -0.96487,1.59963 -1.26954,2.666016 -0.28778,1.066424 -0.43166,2.3021 -0.43164,3.707031 l 0,15.919922 -4.51953,0 m -38.05094,-29.356267 0,17.417969 c -1e-5,1.337248 0.0931,2.454435 0.27929,3.351563 0.20312,0.897141 0.52473,1.625005 0.96485,2.183593 0.44009,0.541671 1.01561,0.930994 1.72656,1.167969 0.72785,0.220055 1.62499,0.330081 2.69141,0.330078 1.08331,3e-6 2.05662,-0.186194 2.91992,-0.558593 0.88019,-0.389319 1.62498,-0.939449 2.23437,-1.650391 0.62629,-0.727859 1.10871,-1.61653 1.44727,-2.666016 0.33852,-1.066397 0.50779,-2.285146 0.50781,-3.65625 l 0,-15.919922 4.57031,0 0,21.607422 c -2e-5,0.575526 -2e-5,1.184901 0,1.828125 0.0169,0.626306 0.0338,1.227217 0.0508,1.802735 0.0169,0.558595 0.0338,1.041016 0.0508,1.447265 0.0169,0.406251 0.0338,0.66862 0.0508,0.78711 l -4.31641,0 c -0.017,-0.08464 -0.0339,-0.313151 -0.0508,-0.685547 -0.017,-0.372395 -0.0423,-0.795572 -0.0762,-1.269531 -0.0169,-0.490883 -0.0339,-0.981768 -0.0508,-1.472657 -0.0169,-0.507808 -0.0254,-0.930985 -0.0254,-1.269531 l -0.0762,0 c -0.44012,0.795577 -0.92254,1.514977 -1.44726,2.158203 -0.52476,0.643231 -1.13413,1.193361 -1.82813,1.650391 -0.69402,0.440104 -1.4896,0.778646 -2.38672,1.015625 -0.89715,0.253906 -1.93816,0.380859 -3.12304,0.380859 -1.52345,0 -2.8353,-0.186198 -3.93555,-0.558594 -1.10027,-0.372395 -2.00586,-0.947915 -2.7168,-1.726562 -0.71094,-0.778643 -1.23568,-1.77734 -1.57422,-2.996094 -0.32161,-1.218744 -0.48242,-2.682935 -0.48242,-4.392578 l 0,-18.306641 4.59571,0"
         inkscape:connector-curvature="0" />
    </g>
  </g>
  <g
     inkscape:label="text copy"
     id="g3040"
     inkscape:groupmode="layer"
     style="display:none">
    <g
       transform="translate(-4.8435674,34.443146)"
       id="g3042"
       style="font-size:40px;font-style:normal;font-weight:normal;line-height:125%;letter-spacing:0px;word-spacing:0px;fill:#000000;fill-opacity:1;stroke:none;font-family:Sans">
      <path
         style="font-size:52px;font-variant:normal;font-stretch:normal;font-family:Liberation Sans;-inkscape-font-specification:Liberation Sans"
         d="m 170.46234,85.652275 -8.06403,-17.97598 -11.60537,5.766307 8.87881,18.966524 c -0.92683,0.812167 -2.52833,1.675087 -3.44216,2.577903 L 136.50927,55.58977 c -0.15385,-0.307352 4.40687,-2.280826 4.40687,-2.280826 l 8.10397,16.332492 11.93977,-6.03808 -5.9793,-15.679793 c 2.32933,-0.786675 4.48023,-1.623947 4.48023,-1.623947 l 14.35597,37.811125 z m 112.22698,4.753145 c -0.0498,1.597024 0.0717,3.077491 0.38009,4.439883 0.32921,1.344178 0.85776,2.514123 1.5941,3.50277 0.75748,0.97018 1.74442,1.730937 2.9593,2.267657 1.21472,0.51793 2.689,0.7553 4.40298,0.68777 2.50665,-0.0987 4.49144,-0.68686 5.9042,-1.692927 1.43396,-1.00787 2.32593,-2.228966 2.69687,-3.630129 1.67955,0.242821 3.3749,0.451438 5.08566,0.624082 -0.22935,0.889201 -0.61079,1.809227 -1.15399,2.755787 -0.52448,0.925057 -1.29654,1.803677 -2.32357,2.622597 -1.02926,0.80027 -2.37203,1.51002 -4.02685,2.10176 -1.63444,0.57116 -3.65561,0.92784 -6.03474,1.02185 -5.28699,0.2089 -9.30567,-1.26241 -11.85556,-4.07077 -0.74617,-0.82841 -1.35759,-1.770837 -1.83692,-2.822137 -1.14309,-2.511971 -1.52745,-5.639112 -1.25656,-9.364787 0.20713,-2.84877 0.74669,-5.229142 1.57143,-7.153457 0.237,-0.557546 0.49051,-1.083523 0.76016,-1.578285 l 0,0 c 0.66973,-1.229372 1.43847,-2.265718 2.30568,-3.115213 1.21618,-1.191296 2.57377,-2.045187 4.09251,-2.579757 1.51885,-0.553307 3.11325,-0.853841 4.81411,-0.91619 2.31315,-0.08472 4.25309,0.184968 5.8825,0.864514 1.64643,0.67803 3.04123,1.664462 4.19486,2.991933 1.16869,1.306606 2.12346,2.893101 2.84045,4.78036 0.73529,1.884538 1.29951,3.954526 1.65652,6.219466 l 0.10534,0.668349 c -7.54705,1.185773 -15.17605,1.611879 -22.75857,1.374874 z m 16.86999,-4.515473 c -0.63267,-3.16322 -1.67454,-5.400684 -3.08763,-6.749238 -1.41474,-1.36722 -3.26693,-1.970728 -5.64353,-1.884955 -0.79221,0.02863 -1.62399,0.191281 -2.50522,0.485366 -0.86382,0.275102 -1.6697,0.755798 -2.42829,1.445886 -0.75863,0.69014 -1.41677,1.627723 -1.97781,2.818046 -0.56061,1.171577 -0.91642,2.674022 -1.04918,4.512946 5.56589,0.17106 11.1483,-0.02436 16.69166,-0.628051 z m -32.84253,16.218853 6.25356,-41.368868 c 1.44808,0.220838 2.88842,0.417823 4.32053,0.58831 l -4.90419,41.539848 c -1.90372,-0.22347 -3.79385,-0.47745 -5.6699,-0.75929 z m -1.04813,-14.244434 c -0.74963,4.415782 -2.0308,7.78967 -3.9177,10.083666 -3.30064,3.336618 -6.98457,4.092408 -10.99059,3.182538 -3.64148,-0.94265 -6.59711,-2.956029 -8.87815,-6.584779 l -1.01271,3.551003 -5.26458,-1.459701 c 0.69649,-1.925109 1.33889,-4.154406 1.87347,-6.00283 l 9.6302,-34.214272 c 1.55504,0.440096 3.09876,0.867726 4.63202,1.279528 0.0155,0.925763 -3.22273,11.119122 -3.84453,14.518312 5.49253,-3.955837 14.21799,-0.872925 16.95345,4.864359 1.26318,2.872919 1.69985,5.592954 0.81898,10.782155 m -20.87973,-4.1681 c -3.09679,12.151144 9.82156,19.256105 15.17437,6.947269 C 266.00817,74.266966 247.695,71.04917 244.78878,83.696245 z m -33.03583,5.649538 5.32384,-18.595239 c 0.4087,-1.42761 0.65995,-2.646167 0.75234,-3.655882 0.0923,-1.009698 0.002,-1.86616 -0.27138,-2.568931 -0.23712,-0.678004 -0.64486,-1.228547 -1.2236,-1.650262 -0.0321,-0.02346 -0.0648,-0.04652 -0.098,-0.06919 -0.62639,-0.449041 -1.44746,-0.814286 -2.46456,-1.091054 -1.05415,-0.286792 -2.06773,-0.332235 -3.03194,-0.136455 -0.95948,0.177634 -1.84619,0.583059 -2.65426,1.214304 -0.78498,0.617686 -1.4822,1.463224 -2.09147,2.533881 -0.58654,1.056879 -1.05356,2.327014 -1.40918,3.80737 l -4.12927,17.188761 c -1.45524,-0.352538 -2.88975,-0.680383 -4.30428,-0.977416 l 4.90115,-23.47808 c 0.13054,-0.625323 0.25799,-1.280104 0.3804,-1.964747 0.14577,-0.698917 0.27297,-1.353748 0.37967,-1.964889 0.11109,-0.629363 0.20266,-1.166852 0.27507,-1.612399 0.0724,-0.445489 0.11198,-0.734702 0.11919,-0.867555 1.66271,0.344447 3.31006,0.712831 4.9427,1.099909 -0.003,0.096 -0.042,0.347425 -0.11874,0.754181 -0.0767,0.406814 -0.16869,0.877595 -0.27618,1.41228 -0.0842,0.520965 -0.18248,1.057887 -0.29463,1.6108 -0.10791,0.534658 -0.20565,0.984766 -0.29307,1.350351 0.028,0.0067 0.0561,0.0134 0.0841,0.0201 0.65423,-0.751791 1.3316,-1.409512 2.03045,-1.972738 0.69883,-0.563177 1.45957,-0.992846 2.27919,-1.287636 0.84313,-0.308118 1.75236,-0.469582 2.72223,-0.48334 0.99345,-0.02686 2.08974,0.124995 3.27993,0.456539 0.3255,0.09069 0.63811,0.187989 0.93789,0.291789 l 0,0 c 1.80486,0.621154 3.15162,1.477438 4.0465,2.558307 1.0616,1.265535 1.55873,2.939476 1.49994,5.018602 0.0272,0.008 0.0544,0.01595 0.0816,0.02393 0.68376,-0.720288 1.3991,-1.342856 2.14537,-1.867711 0.74618,-0.524821 1.55161,-0.914165 2.41493,-1.168193 0.8686,-0.272013 1.7924,-0.399682 2.76968,-0.383651 0.98256,-0.0019 2.04929,0.168607 3.19835,0.510118 1.47212,0.437604 2.6738,1.009111 3.61107,1.716178 0.95504,0.712361 1.64938,1.581048 2.08686,2.60864 0.43737,1.027623 0.62791,2.2465 0.57167,3.658003 -0.0511,1.393466 -0.33382,2.993744 -0.85149,4.800446 l -5.59912,19.53959 c -1.66937,-0.475981 -3.32325,-0.955821 -4.96248,-1.436267 l 5.45864,-18.558692 c 0.41904,-1.424806 0.67886,-2.6417 0.78036,-3.65054 0.10137,-1.008828 0.0217,-1.8653 -0.2391,-2.569726 -0.23757,-0.717123 -0.66252,-1.293877 -1.27589,-1.730875 -0.60812,-0.454997 -1.40663,-0.82971 -2.39718,-1.124457 -1.02663,-0.305432 -2.01485,-0.383703 -2.96335,-0.233924 -0.94323,0.131789 -1.82591,0.487978 -2.6464,1.068844 -0.80249,0.586237 -1.53369,1.399784 -2.19314,2.440355 -0.64146,1.045914 -1.18148,2.317751 -1.6216,3.814886 l -4.9874,16.964658 c -1.57076,-0.462968 -3.12892,-0.918371 -4.6753,-1.362955 M 178.35642,51.479829 c -0.0902,14.320728 -2.08642,24.464996 3.76146,25.815493 4.82331,0.138537 7.58347,-4.360355 7.58347,-4.360355 1.84284,-6.841447 2.07901,-13.93271 3.73561,-21.132308 1.87366,0.288231 3.06437,0.496765 4.60271,0.753104 0,0 -3.74258,20.505063 -4.90115,30.103723 -1.30704,-0.212813 -3.66978,-0.59828 -4.84754,-0.744513 l 0.45005,-2.904488 c -2.6214,1.975523 -4.31285,2.261481 -7.3311,2.266008 -3.78517,-0.282945 -5.47015,-1.759626 -6.63714,-4.8495 -1.55685,-6.836896 -0.97407,-16.665452 -1.27359,-25.076321"
         id="path3044"
         inkscape:connector-curvature="0"
         sodipodi:nodetypes="cccccsccccccccccccccccccsccsccccccccccccccccscccccccccccccccccccccccccccccccccsccsccscccccccccccccccccccccccccccccccccccccccccccccccc" />
    </g>
  </g>
  <g
     style="display:inline"
     inkscape:groupmode="layer"
     id="g3050"
     inkscape:label="text copy copy">
    <g
       style="font-size:40px;font-style:normal;font-weight:normal;line-height:125%;letter-spacing:0px;word-spacing:0px;fill:#000000;fill-opacity:1;stroke:none;font-family:Sans"
       id="g3052"
       transform="translate(-4.8435674,34.443146)">
      <path
         sodipodi:nodetypes="ccccccccccccccccccccccccsccsccccccccccccccccscccccccccccccccccccccccccccccccccsccsccscccccccccccccccccccccccccccccccccccccccccccccccc"
         inkscape:connector-curvature="0"
         id="path3054"
         d="m 170.46234,86.018025 -4.65924,-18.660887 -11.73067,3.831803 7.45765,20.753436 c 0,0 -3.72657,2.019919 -4.6404,2.922735 l -15.6415,-43.274081 5.13836,-1.834995 6.23698,17.337406 12.32643,-4.099669 -4.20318,-16.369457 5.42937,-1.510377 8.12831,39.240635 z m 112.22698,4.387395 c -0.0498,1.597024 0.0717,3.077491 0.38009,4.439883 0.32921,1.344178 0.85776,2.514123 1.5941,3.50277 0.75748,0.97018 1.74442,1.730937 2.9593,2.267657 1.21472,0.51793 2.689,0.7553 4.40298,0.68777 2.50665,-0.0987 4.49144,-0.68686 5.9042,-1.692927 1.43396,-1.00787 2.32593,-2.228966 2.69687,-3.630129 1.67955,0.242821 3.3749,0.451438 5.08566,0.624082 -0.22935,0.889201 -0.61079,1.809227 -1.15399,2.755787 -0.52448,0.925057 -1.29654,1.803677 -2.32357,2.622597 -1.02926,0.80027 -2.37203,1.51002 -4.02685,2.10176 -1.63444,0.57116 -3.65561,0.92784 -6.03474,1.02185 -5.28699,0.2089 -9.30567,-1.26241 -11.85556,-4.07077 -0.74617,-0.82841 -1.35759,-1.770837 -1.83692,-2.822137 -1.14309,-2.511971 -1.52745,-5.639112 -1.25656,-9.364787 0.20713,-2.84877 0.74669,-5.229142 1.57143,-7.153457 0.237,-0.557546 0.49051,-1.083523 0.76016,-1.578285 l 0,0 c 0.66973,-1.229372 1.43847,-2.265718 2.30568,-3.115213 1.21618,-1.191296 2.57377,-2.045187 4.09251,-2.579757 1.51885,-0.553307 3.11325,-0.853841 4.81411,-0.91619 2.31315,-0.08472 4.25309,0.184968 5.8825,0.864514 1.64643,0.67803 3.04123,1.664462 4.19486,2.991933 1.16869,1.306606 2.12346,2.893101 2.84045,4.78036 0.73529,1.884538 1.29951,3.954526 1.65652,6.219466 l 0.10534,0.668349 c -7.54705,1.185773 -15.17605,1.611879 -22.75857,1.374874 z m 16.86999,-4.515473 c -0.63267,-3.16322 -1.67454,-5.400684 -3.08763,-6.749238 -1.41474,-1.36722 -3.26693,-1.970728 -5.64353,-1.884955 -0.79221,0.02863 -1.62399,0.191281 -2.50522,0.485366 -0.86382,0.275102 -1.6697,0.755798 -2.42829,1.445886 -0.75863,0.69014 -1.41677,1.627723 -1.97781,2.818046 -0.56061,1.171577 -0.91642,2.674022 -1.04918,4.512946 5.56589,0.17106 11.1483,-0.02436 16.69166,-0.628051 z m -32.84253,16.218853 6.25356,-41.368868 c 1.44808,0.220838 2.88842,0.417823 4.32053,0.58831 l -4.90419,41.539848 c -1.90372,-0.22347 -3.79385,-0.47745 -5.6699,-0.75929 z m -1.04813,-14.244434 c -0.74963,4.415782 -2.0308,7.78967 -3.9177,10.083666 -3.30064,3.336618 -6.98457,4.092408 -10.99059,3.182538 -3.64148,-0.94265 -6.59711,-2.956029 -8.87815,-6.584779 l -1.01271,3.551003 -5.26458,-1.459701 c 0.69649,-1.925109 1.33889,-4.154406 1.87347,-6.00283 l 9.6302,-34.214272 c 1.55504,0.440096 3.09876,0.867726 4.63202,1.279528 0.0155,0.925763 -3.22273,11.119122 -3.84453,14.518312 5.49253,-3.955837 14.21799,-0.872925 16.95345,4.864359 1.26318,2.872919 1.69985,5.592954 0.81898,10.782155 m -20.87973,-4.1681 c -3.09679,12.151144 9.82156,19.256105 15.17437,6.947269 C 266.00817,74.266966 247.695,71.04917 244.78878,83.696245 z m -33.03583,5.649538 5.32384,-18.595239 c 0.4087,-1.42761 0.65995,-2.646167 0.75234,-3.655882 0.0923,-1.009698 0.002,-1.86616 -0.27138,-2.568931 -0.23712,-0.678004 -0.64486,-1.228547 -1.2236,-1.650262 -0.0321,-0.02346 -0.0648,-0.04652 -0.098,-0.06919 -0.62639,-0.449041 -1.44746,-0.814286 -2.46456,-1.091054 -1.05415,-0.286792 -2.06773,-0.332235 -3.03194,-0.136455 -0.95948,0.177634 -1.84619,0.583059 -2.65426,1.214304 -0.78498,0.617686 -1.4822,1.463224 -2.09147,2.533881 -0.58654,1.056879 -1.05356,2.327014 -1.40918,3.80737 l -4.12927,17.188761 c -1.45524,-0.352538 -2.88975,-0.680383 -4.30428,-0.977416 l 4.90115,-23.47808 c 0.13054,-0.625323 0.25799,-1.280104 0.3804,-1.964747 0.14577,-0.698917 0.27297,-1.353748 0.37967,-1.964889 0.11109,-0.629363 0.20266,-1.166852 0.27507,-1.612399 0.0724,-0.445489 0.11198,-0.734702 0.11919,-0.867555 1.66271,0.344447 3.31006,0.712831 4.9427,1.099909 -0.003,0.096 -0.042,0.347425 -0.11874,0.754181 -0.0767,0.406814 -0.16869,0.877595 -0.27618,1.41228 -0.0842,0.520965 -0.18248,1.057887 -0.29463,1.6108 -0.10791,0.534658 -0.20565,0.984766 -0.29307,1.350351 0.028,0.0067 0.0561,0.0134 0.0841,0.0201 0.65423,-0.751791 1.3316,-1.409512 2.03045,-1.972738 0.69883,-0.563177 1.45957,-0.992846 2.27919,-1.287636 0.84313,-0.308118 1.75236,-0.469582 2.72223,-0.48334 0.99345,-0.02686 2.08974,0.124995 3.27993,0.456539 0.3255,0.09069 0.63811,0.187989 0.93789,0.291789 l 0,0 c 1.80486,0.621154 3.15162,1.477438 4.0465,2.558307 1.0616,1.265535 1.55873,2.939476 1.49994,5.018602 0.0272,0.008 0.0544,0.01595 0.0816,0.02393 0.68376,-0.720288 1.3991,-1.342856 2.14537,-1.867711 0.74618,-0.524821 1.55161,-0.914165 2.41493,-1.168193 0.8686,-0.272013 1.7924,-0.399682 2.76968,-0.383651 0.98256,-0.0019 2.04929,0.168607 3.19835,0.510118 1.47212,0.437604 2.6738,1.009111 3.61107,1.716178 0.95504,0.712361 1.64938,1.581048 2.08686,2.60864 0.43737,1.027623 0.62791,2.2465 0.57167,3.658003 -0.0511,1.393466 -0.33382,2.993744 -0.85149,4.800446 l -5.59912,19.53959 c -1.66937,-0.475981 -3.32325,-0.955821 -4.96248,-1.436267 l 5.45864,-18.558692 c 0.41904,-1.424806 0.67886,-2.6417 0.78036,-3.65054 0.10137,-1.008828 0.0217,-1.8653 -0.2391,-2.569726 -0.23757,-0.717123 -0.66252,-1.293877 -1.27589,-1.730875 -0.60812,-0.454997 -1.40663,-0.82971 -2.39718,-1.124457 -1.02663,-0.305432 -2.01485,-0.383703 -2.96335,-0.233924 -0.94323,0.131789 -1.82591,0.487978 -2.6464,1.068844 -0.80249,0.586237 -1.53369,1.399784 -2.19314,2.440355 -0.64146,1.045914 -1.18148,2.317751 -1.6216,3.814886 l -4.9874,16.964658 c -1.57076,-0.462968 -3.12892,-0.918371 -4.6753,-1.362955 M 178.35642,51.479829 c -0.0902,14.320728 -2.08642,24.464996 3.76146,25.815493 4.82331,0.138537 7.58347,-4.360355 7.58347,-4.360355 1.84284,-6.841447 2.07901,-13.93271 3.73561,-21.132308 1.87366,0.288231 3.06437,0.496765 4.60271,0.753104 0,0 -3.74258,20.505063 -4.90115,30.103723 -1.30704,-0.212813 -3.66978,-0.59828 -4.84754,-0.744513 l 0.45005,-2.904488 c -2.6214,1.975523 -4.31285,2.261481 -7.3311,2.266008 -3.78517,-0.282945 -5.47015,-1.759626 -6.63714,-4.8495 -1.55685,-6.836896 -0.97407,-16.665452 -1.27359,-25.076321"
         style="font-size:52px;font-variant:normal;font-stretch:normal;font-family:Liberation Sans;-inkscape-font-specification:Liberation Sans" />
    </g>
  </g>
</svg>
